<svg version="1.1" id="Layer_1" xmlns="http://www.w3.org/2000/svg" xmlns:xlink="http://www.w3.org/1999/xlink" x="0px" y="0px"
	 width="100%" viewBox="0 0 496 496" enable-background="new 0 0 496 496" xml:space="preserve">
<path fill="#000000" opacity="1.000000" stroke="none" 
	d="
M238.592316,131.016083 
	C241.976303,133.023621 244.331619,135.642319 246.810410,138.100937 
	C260.179810,151.361526 274.070984,164.156708 286.639191,178.139786 
	C293.317047,185.569397 300.754852,187.775711 309.850372,187.661438 
	C314.015564,187.609100 318.183289,187.645325 322.348267,187.724884 
	C326.572144,187.805588 328.361328,190.056915 327.852386,194.202927 
	C326.334106,206.571289 324.733490,218.930298 323.336792,231.312332 
	C322.891907,235.256149 320.622833,236.841583 317.091949,237.121033 
	C303.165100,238.223236 289.241211,239.398651 275.297302,240.229202 
	C271.203857,240.473038 267.896820,241.482300 265.183380,244.638092 
	C260.994843,249.509476 256.641724,254.239380 252.694412,258.653595 
	C260.794861,258.653595 270.091827,258.649475 279.388824,258.654602 
	C292.054108,258.661621 304.719727,258.628021 317.384369,258.721863 
	C320.375977,258.744019 324.301727,257.669800 325.111023,262.127747 
	C325.918335,266.574982 321.882812,266.787140 318.846497,267.919617 
	C320.029022,272.572235 320.281647,276.985596 314.934662,279.982574 
	C321.624084,281.258911 320.117676,287.761353 323.568878,291.333801 
	C325.184418,289.093872 326.091919,286.528015 326.871460,283.939758 
	C327.705963,281.169098 329.565033,280.425598 332.219849,280.699707 
	C335.006226,280.987427 335.074554,283.035126 335.245239,285.063965 
	C335.649292,289.865845 336.047302,294.668274 336.831421,299.545654 
	C337.437256,294.358124 338.095612,289.175903 338.620575,283.980194 
	C338.805939,282.145569 339.118408,280.748016 341.389099,280.650879 
	C343.310303,280.568756 345.106964,280.512207 346.015137,282.640778 
	C347.185272,285.383331 348.338745,288.132935 349.996918,292.056732 
	C351.454193,288.611816 352.652863,286.163574 353.526978,283.604431 
	C354.413727,281.008362 356.219513,280.544556 358.607819,280.694489 
	C361.236023,280.859497 361.195312,282.729950 361.396820,284.594147 
	C361.950714,289.718048 362.617920,294.829956 363.143494,299.956543 
	C363.351898,301.989502 363.438904,304.079407 360.464172,304.289612 
	C357.569489,304.494171 356.645386,302.994873 356.650299,300.370209 
	C356.653046,298.903229 356.376221,297.435699 355.321320,295.677216 
	C354.626709,297.355743 353.929108,299.033051 353.238403,300.713196 
	C352.614136,302.231873 352.267303,304.077698 350.136108,304.135010 
	C347.727692,304.199799 347.323395,302.204712 346.682251,300.498627 
	C346.101044,298.951965 345.500946,297.412384 344.789581,295.557861 
	C342.338348,298.044678 344.636719,302.056305 342.044250,303.670013 
	C339.465302,305.275330 336.002045,304.806610 333.260162,304.112366 
	C327.949249,302.767670 330.795502,297.505432 329.229675,293.815155 
	C328.419250,296.084778 327.771362,298.097321 326.981537,300.052521 
	C326.266357,301.822815 326.090668,304.285706 323.366730,304.141815 
	C320.759796,304.004089 320.650879,301.553925 319.909424,299.792236 
	C319.223022,298.161469 318.682587,296.469269 317.754303,293.913055 
	C317.231140,297.264404 316.889648,299.649017 316.479523,302.021729 
	C316.102203,304.204529 314.478638,304.405731 312.691193,304.286407 
	C310.579987,304.145355 310.457703,302.708801 310.572449,301.081970 
	C311.040192,294.451111 311.494171,287.819275 311.948822,281.251678 
	C304.459137,278.020050 303.722931,276.674072 304.501495,267.458313 
	C286.083984,267.458313 267.697723,267.458313 248.865158,267.458313 
	C250.499619,273.233490 249.441116,277.398743 244.334900,280.671021 
	C241.880142,282.244110 242.945114,285.934357 243.776779,288.587158 
	C244.231766,290.038391 246.034805,289.662964 247.347977,289.584015 
	C248.836731,289.494446 249.129730,288.413757 249.358231,287.172852 
	C249.715805,285.231049 248.950668,283.163757 250.014542,281.264648 
	C251.586594,280.374512 253.178467,280.543152 255.174576,281.216370 
	C256.138672,287.833923 256.022583,294.615509 255.745514,301.400299 
	C255.663788,303.401428 254.594833,304.350189 252.513458,304.298065 
	C250.338120,304.243591 249.607391,303.078674 249.623489,301.114349 
	C249.631683,300.115173 249.593674,299.114746 249.548843,298.116119 
	C249.467590,296.306122 248.522202,295.428162 246.694839,295.379181 
	C244.785843,295.328033 243.396286,295.846985 243.265076,298.036377 
	C243.195328,299.200348 243.159821,300.366760 243.071411,301.529175 
	C242.912277,303.621857 241.660172,304.318115 239.688644,304.297943 
	C237.559082,304.276123 236.711349,303.209320 236.710892,301.197388 
	C236.709763,296.365204 236.719315,291.532501 236.654495,286.700958 
	C236.602448,282.821259 237.739502,279.068970 234.796600,275.234680 
	C232.248230,271.914429 235.367126,268.393066 237.468704,265.169678 
	C234.313263,261.907227 232.086456,258.350800 232.595566,253.599960 
	C232.841278,251.307098 230.757584,250.180817 229.379959,248.802597 
	C213.131104,232.546524 196.952240,216.218460 180.533203,200.135696 
	C175.774094,195.474091 173.644913,190.310455 173.765503,183.687576 
	C174.008209,170.360275 173.740540,157.024536 173.850403,143.693649 
	C173.923553,134.818787 177.873947,129.858505 186.506042,129.456009 
	C202.467819,128.711746 218.470718,128.365479 234.434189,129.793610 
	C235.728867,129.909454 236.983826,130.469528 238.592316,131.016083 
M217.557907,215.866684 
	C222.853241,221.410416 228.333511,226.855698 235.949982,228.950821 
	C242.029160,230.623062 243.206436,229.293579 240.992661,223.455856 
	C234.559052,206.490387 227.790588,189.651596 221.401840,172.669678 
	C219.815369,168.452713 216.948761,166.945099 213.048096,167.521942 
	C209.567078,168.036697 208.608597,171.286850 208.122147,174.258743 
	C205.692169,189.104431 210.544144,202.391464 217.557907,215.866684 
M229.966568,172.654724 
	C234.815872,185.742889 234.815842,185.745575 248.589264,185.875519 
	C250.919342,185.897507 253.262955,185.730988 255.576599,185.928848 
	C258.323883,186.163788 259.442627,185.022186 259.826569,182.360794 
	C260.396118,178.412888 259.111206,174.824158 258.383575,171.075958 
	C257.694489,167.526337 256.141479,165.858307 252.446106,165.839386 
	C248.379959,165.818527 244.661087,164.466843 241.188919,162.242081 
	C238.114853,160.272385 234.864243,158.557800 231.597809,156.917252 
	C229.912949,156.071030 228.009903,155.868164 226.522812,157.476364 
	C225.248245,158.854736 225.324280,160.425446 225.997787,162.124985 
	C227.284241,165.371277 228.445572,168.667145 229.966568,172.654724 
M204.446075,147.289780 
	C200.111526,142.814270 195.401627,142.057693 191.310120,145.179688 
	C187.487366,148.096603 186.926285,154.204727 190.126419,158.065994 
	C193.138245,161.700058 195.630798,161.633194 199.764725,157.830444 
	C200.123611,157.500320 200.552460,157.067261 200.984283,157.022202 
	C207.777634,156.313644 206.051620,152.045868 204.446075,147.289780 
M302.279297,208.404739 
	C300.256714,209.085587 299.021301,210.685150 298.049011,212.401382 
	C297.041931,214.179031 296.369843,216.724716 298.167847,217.843185 
	C300.877472,219.528732 304.501495,219.414062 307.201447,218.046936 
	C309.973145,216.643509 308.678284,213.228027 308.502106,210.745651 
	C308.244415,207.115463 305.137817,208.589920 302.279297,208.404739 
M242.777771,192.271240 
	C241.536255,192.447037 240.098785,191.852295 238.782669,193.654816 
	C239.817596,196.237411 240.860748,199.157471 242.151443,201.963699 
	C243.234726,204.319031 245.583588,204.595428 247.006348,202.983246 
	C249.041901,200.676682 248.981354,197.422745 248.436890,194.481064 
	C247.933258,191.760010 245.450241,192.480774 242.777771,192.271240 
M299.956604,229.834473 
	C301.600128,229.779160 303.250732,229.801697 304.885620,229.652039 
	C308.102386,229.357590 309.859528,226.530090 308.397522,223.837341 
	C306.956940,221.184097 304.282959,222.497345 302.143799,222.311356 
	C300.412445,222.160843 298.158966,221.891846 297.602295,224.192001 
	C297.132172,226.134354 296.387299,228.514420 299.956604,229.834473 
M292.033905,222.475281 
	C287.551575,221.237717 285.235077,224.315872 283.031311,227.234344 
	C281.971588,228.637756 281.835052,231.039169 284.045898,231.165115 
	C286.928528,231.329300 290.433380,231.726639 292.659149,229.707718 
	C294.507263,228.031342 294.126984,225.151627 292.033905,222.475281 
M318.009155,203.791290 
	C322.012604,202.022919 321.086029,198.425369 320.247375,195.695709 
	C319.490143,193.231049 316.415802,194.112350 314.509186,194.515778 
	C310.893646,195.280823 312.474609,198.484833 312.361115,200.701538 
	C312.182526,204.189697 314.813721,203.989029 318.009155,203.791290 
M312.646759,217.511719 
	C318.419891,220.912048 319.395081,216.791718 318.630371,208.760437 
	C312.612671,207.800064 312.301910,208.042236 312.291168,213.798721 
	C312.289337,214.783356 312.361084,215.768112 312.646759,217.511719 
M308.538818,196.160324 
	C307.100830,193.546951 304.869781,193.450180 303.718414,195.789032 
	C302.711121,197.835220 302.729218,200.636017 304.163025,202.880798 
	C304.744720,203.791534 305.893585,203.926788 306.844299,203.531067 
	C309.568481,202.397079 308.359528,199.903687 308.641663,197.930634 
	C308.687561,197.609558 308.631439,197.273895 308.538818,196.160324 
M255.415970,192.967651 
	C253.125626,192.345795 252.297241,193.371017 252.666321,195.528473 
	C252.932587,197.085083 252.663620,199.116394 254.782745,199.565231 
	C256.799042,199.992294 257.787659,198.522781 258.358185,196.871872 
	C259.087158,194.762497 258.563263,193.282288 255.415970,192.967651 
M312.605530,227.645752 
	C314.064331,229.171555 315.576263,229.024231 316.831299,227.511383 
	C317.846222,226.287979 317.966705,224.706482 317.214813,223.306595 
	C316.566467,222.099487 315.225311,222.150421 314.109253,222.446182 
	C311.562988,223.120911 312.362152,225.215393 312.605530,227.645752 
M312.390076,275.342773 
	C314.920990,274.574127 315.346893,272.907928 313.968170,270.901184 
	C312.933411,269.395111 311.292755,269.538361 310.235474,270.836334 
	C308.541901,272.915527 309.575836,274.382446 312.390076,275.342773 
z"/>
<path fill="#000000" opacity="1.000000" stroke="none" 
	d="
M306.344849,301.374512 
	C301.525482,305.443451 296.506775,306.291290 291.394196,303.188599 
	C286.668030,300.320435 285.101410,295.678833 285.784607,290.313049 
	C286.420135,285.321442 290.197296,281.482269 295.482391,280.219727 
	C299.954437,279.151428 304.978455,281.151337 307.642639,285.060364 
	C311.153564,290.211731 310.833771,295.190063 306.344849,301.374512 
M292.754944,290.317596 
	C291.748871,293.804535 292.640381,296.651459 295.985748,298.215973 
	C298.412140,299.350739 300.753052,298.481964 301.931976,296.155762 
	C303.548950,292.965210 303.673584,289.491333 300.413025,287.258636 
	C297.340302,285.154572 294.769104,286.513733 292.754944,290.317596 
z"/>
<path fill="#000000" opacity="1.000000" stroke="none" 
	d="
M380.806122,283.243652 
	C383.716766,280.008209 391.905365,279.678925 394.938171,282.203125 
	C398.302795,285.003479 398.061157,289.286621 394.193665,295.111359 
	C395.163147,298.341187 398.678680,299.945648 399.602356,303.248199 
	C394.529846,305.166351 394.529846,305.166351 387.933838,298.458405 
	C386.656830,299.239441 387.271454,300.561615 387.125336,301.605194 
	C386.828278,303.726929 385.604889,304.319824 383.670227,304.282867 
	C381.559601,304.242584 380.690155,303.180420 380.698608,301.171387 
	C380.723053,295.353699 380.731995,289.535980 380.806122,283.243652 
z"/>
<path fill="#000000" opacity="1.000000" stroke="none" 
	d="
M134.284973,280.771973 
	C137.176010,282.358887 135.104553,283.743652 134.422577,284.932098 
	C131.966812,289.211578 129.329849,293.387085 126.717804,297.673340 
	C128.996582,299.361755 131.239456,298.483826 133.288055,298.789459 
	C134.998154,299.044586 136.109100,299.720184 136.143829,301.568756 
	C136.179260,303.453613 135.079849,304.280396 133.336349,304.289795 
	C127.735680,304.320038 122.134758,304.301056 115.888260,304.301056 
	C117.893410,297.470459 122.811913,293.018463 124.906219,287.307343 
	C123.935165,285.839355 122.656227,286.335052 121.571404,286.245758 
	C119.439796,286.070251 116.820328,286.446411 116.953598,283.201172 
	C117.093094,279.804291 119.962288,280.744110 121.901932,280.679016 
	C125.884384,280.545319 129.875900,280.681488 134.284973,280.771973 
z"/>
<path fill="#000000" opacity="1.000000" stroke="none" 
	d="
M402.591309,300.248322 
	C398.878052,294.105042 398.820740,289.497833 402.154083,285.204773 
	C405.418945,281.000031 411.294067,279.078278 416.391418,280.534882 
	C418.309937,281.083160 420.648499,281.392609 419.927551,284.234222 
	C419.351532,286.504669 417.783325,287.439850 415.358368,286.564697 
	C414.611115,286.294983 413.705048,286.312103 412.893524,286.399841 
	C409.095306,286.810516 406.455261,288.906738 406.582916,292.741760 
	C406.700806,296.283020 409.294739,298.286407 412.885284,298.596191 
	C413.852814,298.679626 414.906982,298.568329 415.824799,298.259460 
	C418.176575,297.468048 419.351624,298.701172 419.917938,300.639771 
	C420.642548,303.120209 418.739899,303.763367 416.936981,304.313751 
	C411.462402,305.985077 406.823639,304.482941 402.591309,300.248322 
z"/>
<path fill="#000000" opacity="1.000000" stroke="none" 
	d="
M284.054688,298.997437 
	C285.923035,301.814453 284.961975,303.253540 282.418732,304.220886 
	C277.227570,306.195404 270.574402,304.315399 267.188629,299.831085 
	C263.822418,295.372681 263.848480,289.402435 267.253204,285.041565 
	C270.684387,280.646820 277.577972,278.735046 282.526581,280.772827 
	C284.187866,281.456940 285.604553,282.264984 284.826172,284.419220 
	C284.219238,286.098785 283.336487,287.408569 281.166351,286.791992 
	C277.627869,285.786652 274.580933,286.415161 272.422363,289.650696 
	C271.065033,291.685181 271.142517,293.709015 272.617401,295.654510 
	C274.955261,298.738464 278.025726,299.190857 281.524048,298.107025 
	C282.382172,297.841125 283.151642,298.085632 284.054688,298.997437 
z"/>
<path fill="#000000" opacity="1.000000" stroke="none" 
	d="
M221.844666,290.767731 
	C221.835815,296.727325 224.607620,299.369171 230.163483,298.392212 
	C232.883392,297.913971 234.533218,298.410095 234.974152,300.978546 
	C235.455276,303.781036 232.944046,303.968719 231.087662,304.479034 
	C225.685104,305.964142 219.797287,303.736938 216.694626,299.102570 
	C213.921234,294.960022 214.013580,289.647736 216.930038,285.561005 
	C220.111084,281.103516 226.325104,278.947632 231.478928,280.510345 
	C233.398834,281.092468 235.671555,281.494385 234.918503,284.317596 
	C234.295029,286.655090 232.704620,287.195221 230.291794,286.604736 
	C226.660751,285.716125 223.767120,287.015411 221.844666,290.767731 
z"/>
<path fill="#000000" opacity="1.000000" stroke="none" 
	d="
M137.855194,283.255219 
	C139.878220,280.845398 149.316315,279.730225 151.204437,281.198486 
	C152.113983,281.905762 152.160309,282.879730 152.055344,283.884277 
	C151.914062,285.236389 151.023285,285.784241 149.785065,286.137268 
	C148.038803,286.635101 145.668625,285.341888 144.553680,287.838135 
	C145.107101,290.275574 147.089157,289.574432 148.586868,289.696472 
	C150.430328,289.846741 151.953094,290.287384 151.914154,292.485626 
	C151.876633,294.604340 150.448364,295.188477 148.564468,295.307556 
	C147.169403,295.395752 145.470444,294.896576 144.650787,296.814331 
	C145.149887,299.515289 147.419830,298.531433 149.014572,298.723816 
	C150.907166,298.952087 152.224823,299.539246 152.162598,301.703857 
	C152.097092,303.981781 150.500015,304.168121 148.729446,304.346558 
	C138.107483,305.416870 137.721741,305.094421 137.768616,294.676422 
	C137.785034,291.027557 137.792328,287.378662 137.855194,283.255219 
z"/>
<path fill="#000000" opacity="1.000000" stroke="none" 
	d="
M154.763885,281.644775 
	C158.442780,280.012451 161.953888,280.794495 165.415390,280.722473 
	C167.173294,280.685883 168.216568,281.499664 168.221054,283.408295 
	C168.225433,285.268982 167.279755,286.013611 165.502029,286.247681 
	C163.830124,286.467834 161.733643,285.520416 160.611130,287.731842 
	C160.998032,290.251678 163.016891,289.564606 164.517868,289.654480 
	C166.529526,289.774963 168.216888,290.065308 168.097336,292.659088 
	C167.992371,294.936279 166.427856,295.204102 164.639038,295.317383 
	C163.219681,295.407318 161.570145,295.006042 160.673294,296.750549 
	C161.188965,299.541656 163.466309,298.538879 165.059006,298.704437 
	C166.977982,298.903870 168.244995,299.453064 168.178314,301.663757 
	C168.109177,303.955627 166.602310,304.309540 164.790558,304.330353 
	C164.457870,304.334167 164.125046,304.339691 163.792633,304.353271 
	C153.916183,304.755646 153.845169,304.755127 153.936203,294.922089 
	C153.976059,290.618927 153.409470,286.275818 154.763885,281.644775 
z"/>
<path fill="#000000" opacity="1.000000" stroke="none" 
	d="
M434.457275,280.949646 
	C437.050568,284.382812 435.931488,285.951538 432.238953,286.281799 
	C430.864441,286.404724 429.111053,285.841248 428.555603,287.936188 
	C428.968567,290.072723 430.735626,289.611572 432.109375,289.686401 
	C434.006775,289.789795 435.321533,290.289124 435.275208,292.539764 
	C435.228821,294.794098 433.831055,295.230408 431.978149,295.311096 
	C430.708923,295.366394 429.234467,295.100189 428.564178,296.812744 
	C429.068909,299.510803 431.334717,298.535492 432.932404,298.720581 
	C434.917328,298.950531 436.018219,299.774048 435.912384,301.862427 
	C435.812439,303.834625 434.477936,304.272247 432.835724,304.319794 
	C432.669800,304.324585 432.503418,304.327026 432.338226,304.341522 
	C421.713440,305.273712 421.653229,305.217712 421.665314,294.388306 
	C421.666046,293.724243 421.665009,293.060181 421.665283,292.396118 
	C421.670746,280.132172 421.670776,280.132172 434.457275,280.949646 
z"/>
<path fill="#000000" opacity="1.000000" stroke="none" 
	d="
M374.303406,286.279877 
	C372.656189,286.447662 370.985321,286.113586 370.966644,288.089355 
	C370.954651,289.359344 372.114014,289.474182 373.129364,289.643768 
	C375.067810,289.967529 377.944275,288.836304 378.111816,292.227295 
	C378.294708,295.929016 375.231750,295.072327 373.098969,295.421387 
	C372.045624,295.593781 371.148010,295.907288 371.051086,297.324463 
	C372.000702,299.571899 374.152985,298.491333 375.776306,298.759430 
	C377.646881,299.068329 378.315155,300.066132 378.258850,301.826843 
	C378.206116,303.475159 377.320099,304.237274 375.748566,304.269379 
	C373.417938,304.316956 371.082611,304.248749 368.756378,304.367889 
	C365.796356,304.519531 364.538300,303.274628 364.616699,300.257996 
	C364.750854,295.097870 364.756592,289.929535 364.628235,284.769318 
	C364.553558,281.766418 365.794617,280.483704 368.752625,280.621460 
	C370.580627,280.706573 372.420227,280.551971 374.247101,280.647919 
	C375.983215,280.739105 378.172729,280.247589 378.474976,282.951050 
	C378.794128,285.805603 376.899445,286.245453 374.303406,286.279877 
z"/>
<path fill="#000000" opacity="1.000000" stroke="none" 
	d="
M212.973724,293.746338 
	C211.114456,296.600250 207.018234,293.750763 205.675262,297.108337 
	C206.709961,299.428528 208.631393,298.581299 210.140274,298.696838 
	C212.051666,298.843170 213.284119,299.367767 213.385300,301.563232 
	C213.494354,303.929840 212.102539,304.175903 210.240952,304.349915 
	C199.869339,305.319336 199.565567,305.136719 199.662399,294.798950 
	C199.704163,290.340240 199.005157,285.837738 200.102905,281.356506 
	C203.218735,280.053864 206.408066,280.744293 209.522018,280.663269 
	C211.172943,280.620300 212.983307,280.617065 213.208923,282.995056 
	C213.442932,285.461426 212.020523,286.164185 209.892792,286.282684 
	C208.629501,286.353058 207.132141,286.040924 206.433701,287.889038 
	C206.959702,291.637543 214.355865,287.422913 212.973724,293.746338 
z"/>
<path fill="#000000" opacity="1.000000" stroke="none" 
	d="
M194.528229,286.604370 
	C192.210800,290.731903 193.612000,294.934174 193.202728,298.993896 
	C192.962799,301.373993 193.716339,304.324554 189.755707,304.266052 
	C186.045105,304.211273 186.796829,301.416260 186.705292,299.234131 
	C186.601013,296.749207 186.675476,294.256775 186.673538,291.767609 
	C186.671494,289.132324 187.159531,286.307831 183.145859,285.977417 
	C181.597076,285.849884 181.130966,284.407990 181.282837,282.939606 
	C181.451523,281.308624 182.556686,280.703094 184.041290,280.685669 
	C187.525284,280.644745 191.010437,280.601044 194.493759,280.651703 
	C196.130676,280.675507 197.906357,280.590912 198.166031,282.991638 
	C198.439056,285.515808 196.844055,286.096588 194.528229,286.604370 
z"/>
<path fill="#000000" opacity="1.000000" stroke="none" 
	d="
M180.168243,296.134460 
	C177.786453,299.811218 174.519241,298.533539 171.782166,297.771484 
	C170.120392,297.308807 170.073776,295.087646 171.490097,293.715424 
	C173.320435,291.942078 178.395294,293.168488 180.168243,296.134460 
z"/>
<path fill="#000000" opacity="1.000000" stroke="none" 
	d="
M312.070923,275.328857 
	C309.575836,274.382446 308.541901,272.915527 310.235474,270.836334 
	C311.292755,269.538361 312.933411,269.395111 313.968170,270.901184 
	C315.346893,272.907928 314.920990,274.574127 312.070923,275.328857 
z"/>
</svg>